<?xml version="1.0" encoding="UTF-8" standalone="no"?>
<!-- Uploaded to: SVG Repo, www.svgrepo.com, Generator: SVG Repo Mixer Tools -->

<svg
   fill="#000000"
   width="800px"
   height="800px"
   viewBox="0 0 32 32"
   version="1.1"
   id="svg1"
   sodipodi:docname="SupportMe.svg"
   inkscape:version="1.4.1 (93de688d07, 2025-03-30)"
   xmlns:inkscape="http://www.inkscape.org/namespaces/inkscape"
   xmlns:sodipodi="http://sodipodi.sourceforge.net/DTD/sodipodi-0.dtd"
   xmlns="http://www.w3.org/2000/svg"
   xmlns:svg="http://www.w3.org/2000/svg">
  <defs
     id="defs1" />
  <sodipodi:namedview
     id="namedview1"
     pagecolor="#505050"
     bordercolor="#eeeeee"
     borderopacity="1"
     inkscape:showpageshadow="0"
     inkscape:pageopacity="0"
     inkscape:pagecheckerboard="0"
     inkscape:deskcolor="#505050"
     inkscape:zoom="1.16125"
     inkscape:cx="399.56943"
     inkscape:cy="400.43057"
     inkscape:window-width="2560"
     inkscape:window-height="1371"
     inkscape:window-x="0"
     inkscape:window-y="32"
     inkscape:window-maximized="1"
     inkscape:current-layer="svg1" />
  <title
     id="title1">love-howl</title>
  <path
     d="m 31.998917,9.7993573 v 0 C 31.705396,0.44352047 20.391311,-2.7126394 15.684149,5.440954 12.851836,-2.5187641 -0.29919016,0.28430444 0.00407846,9.7993573 0.08747733,12.39447 1.1207568,14.704727 2.628435,16.805945 L 9.8256492,14.406874 C 8.4826024,14.336472 7.0583231,13.767844 5.1802238,12.202761 7.3464282,10.9247 9.092389,10.800144 11.325745,10.617099 13.131277,9.6444736 15.81737,8.7985708 17.009866,9.4332687 19.103502,8.1952829 21.714862,6.6042058 24.351132,5.6045024 v 0 0 c 0,0 0,0 0,0 0.343344,1.3462961 0.360673,3.009941 0.2372,4.5782726 L 23.877817,9.235061 c -3.477841,0.782 -5.227052,7.62179 -0.03899,4.775397 l 0.710515,-1.144839 c 0.119141,1.073355 0.229618,2.066559 0,2.960119 -2.300509,1.622487 -4.651924,2.955786 -6.986009,4.025891 -1.198994,1.054941 -3.555825,4.430971 -4.246844,7.360762 1.352795,1.357127 2.361163,2.662265 2.709922,3.963071 C 17.422528,25.963574 32.297853,19.292748 32,9.7982742 Z M 13.63167,11.342778 c 0.878396,-0.43649 1.834775,-0.672607 2.908129,-0.603288 0.308684,2.148875 -1.743794,1.90301 -2.908129,0.603288 z"
     id="path1"
     style="stroke-width:1.0831;fill:#f9f9f9;fill-opacity:1" />
</svg>
